<mxfile host="app.diagrams.net" modified="2021-08-11T07:49:05.421Z" agent="5.0 (Macintosh; Intel Mac OS X 10_15_7) AppleWebKit/537.36 (KHTML, like Gecko) Chrome/92.0.4515.131 Safari/537.36" etag="TE48YZv_uVMyHRvFu-ql" version="14.9.3" type="github">
  <diagram name="Page-1" id="5f0bae14-7c28-e335-631c-24af17079c00">
    <mxGraphModel dx="1425" dy="796" grid="1" gridSize="10" guides="1" tooltips="1" connect="1" arrows="1" fold="1" page="1" pageScale="1" pageWidth="1100" pageHeight="850" background="none" math="0" shadow="0">
      <root>
        <mxCell id="0" />
        <mxCell id="1" parent="0" />
        <mxCell id="Zg44AK9i3nNa13F0HYsf-8" style="edgeStyle=orthogonalEdgeStyle;rounded=0;orthogonalLoop=1;jettySize=auto;html=1;" edge="1" parent="1" source="Zg44AK9i3nNa13F0HYsf-1" target="Zg44AK9i3nNa13F0HYsf-3">
          <mxGeometry relative="1" as="geometry" />
        </mxCell>
        <mxCell id="Zg44AK9i3nNa13F0HYsf-14" value="确定typescript-json-shcema能力" style="edgeLabel;html=1;align=center;verticalAlign=middle;resizable=0;points=[];" vertex="1" connectable="0" parent="Zg44AK9i3nNa13F0HYsf-8">
          <mxGeometry x="-0.0812" relative="1" as="geometry">
            <mxPoint as="offset" />
          </mxGeometry>
        </mxCell>
        <mxCell id="Zg44AK9i3nNa13F0HYsf-1" value="1. 微模块开发时约定typing规范" style="rounded=0;whiteSpace=wrap;html=1;" vertex="1" parent="1">
          <mxGeometry x="218.75" y="210" width="137.5" height="60" as="geometry" />
        </mxCell>
        <mxCell id="Zg44AK9i3nNa13F0HYsf-4" style="edgeStyle=orthogonalEdgeStyle;rounded=0;orthogonalLoop=1;jettySize=auto;html=1;entryX=0.5;entryY=0;entryDx=0;entryDy=0;" edge="1" parent="1" target="Zg44AK9i3nNa13F0HYsf-1">
          <mxGeometry relative="1" as="geometry">
            <mxPoint x="280" y="200.0000000000001" as="targetPoint" />
            <mxPoint x="287.5" y="150.0000000000001" as="sourcePoint" />
          </mxGeometry>
        </mxCell>
        <mxCell id="Zg44AK9i3nNa13F0HYsf-9" style="edgeStyle=orthogonalEdgeStyle;rounded=0;orthogonalLoop=1;jettySize=auto;html=1;" edge="1" parent="1" source="Zg44AK9i3nNa13F0HYsf-3" target="Zg44AK9i3nNa13F0HYsf-6">
          <mxGeometry relative="1" as="geometry">
            <Array as="points">
              <mxPoint x="930" y="240" />
              <mxPoint x="930" y="240" />
            </Array>
          </mxGeometry>
        </mxCell>
        <mxCell id="Zg44AK9i3nNa13F0HYsf-3" value="2. builder sop构建器解析typing" style="whiteSpace=wrap;html=1;" vertex="1" parent="1">
          <mxGeometry x="635" y="210" width="120" height="60" as="geometry" />
        </mxCell>
        <mxCell id="Zg44AK9i3nNa13F0HYsf-7" style="edgeStyle=orthogonalEdgeStyle;rounded=0;orthogonalLoop=1;jettySize=auto;html=1;" edge="1" parent="1" target="Zg44AK9i3nNa13F0HYsf-3">
          <mxGeometry relative="1" as="geometry">
            <mxPoint x="695" y="160.0000000000001" as="sourcePoint" />
          </mxGeometry>
        </mxCell>
        <mxCell id="Zg44AK9i3nNa13F0HYsf-73" style="edgeStyle=orthogonalEdgeStyle;rounded=0;orthogonalLoop=1;jettySize=auto;html=1;" edge="1" parent="1" source="Zg44AK9i3nNa13F0HYsf-6" target="Zg44AK9i3nNa13F0HYsf-12">
          <mxGeometry relative="1" as="geometry">
            <Array as="points">
              <mxPoint x="920" y="510" />
              <mxPoint x="920" y="510" />
            </Array>
          </mxGeometry>
        </mxCell>
        <mxCell id="Zg44AK9i3nNa13F0HYsf-74" value="现成后端接口获取对应json" style="edgeLabel;html=1;align=center;verticalAlign=middle;resizable=0;points=[];" vertex="1" connectable="0" parent="Zg44AK9i3nNa13F0HYsf-73">
          <mxGeometry x="-0.0777" relative="1" as="geometry">
            <mxPoint as="offset" />
          </mxGeometry>
        </mxCell>
        <mxCell id="Zg44AK9i3nNa13F0HYsf-6" value="在build文件夹增加json文件，发布后上传CDN" style="whiteSpace=wrap;html=1;" vertex="1" parent="1">
          <mxGeometry x="960" y="180" width="100" height="410" as="geometry" />
        </mxCell>
        <mxCell id="Zg44AK9i3nNa13F0HYsf-22" style="edgeStyle=orthogonalEdgeStyle;rounded=0;orthogonalLoop=1;jettySize=auto;html=1;" edge="1" parent="1" source="Zg44AK9i3nNa13F0HYsf-12" target="Zg44AK9i3nNa13F0HYsf-18">
          <mxGeometry relative="1" as="geometry" />
        </mxCell>
        <mxCell id="Zg44AK9i3nNa13F0HYsf-72" value="给定仓库，给定测试微模块" style="edgeLabel;html=1;align=center;verticalAlign=middle;resizable=0;points=[];" vertex="1" connectable="0" parent="Zg44AK9i3nNa13F0HYsf-22">
          <mxGeometry x="-0.0414" y="1" relative="1" as="geometry">
            <mxPoint as="offset" />
          </mxGeometry>
        </mxCell>
        <mxCell id="Zg44AK9i3nNa13F0HYsf-29" style="edgeStyle=orthogonalEdgeStyle;rounded=0;orthogonalLoop=1;jettySize=auto;html=1;" edge="1" parent="1" source="Zg44AK9i3nNa13F0HYsf-12" target="Zg44AK9i3nNa13F0HYsf-27">
          <mxGeometry relative="1" as="geometry" />
        </mxCell>
        <mxCell id="Zg44AK9i3nNa13F0HYsf-12" value="3. 前端可视化处理" style="rounded=0;whiteSpace=wrap;html=1;" vertex="1" parent="1">
          <mxGeometry x="633.25" y="480" width="120" height="60" as="geometry" />
        </mxCell>
        <mxCell id="Zg44AK9i3nNa13F0HYsf-23" style="edgeStyle=orthogonalEdgeStyle;rounded=0;orthogonalLoop=1;jettySize=auto;html=1;" edge="1" parent="1" source="Zg44AK9i3nNa13F0HYsf-18" target="Zg44AK9i3nNa13F0HYsf-19">
          <mxGeometry relative="1" as="geometry" />
        </mxCell>
        <mxCell id="Zg44AK9i3nNa13F0HYsf-18" value="1. 解析jsonschema获取对应的微模块typing" style="rounded=1;whiteSpace=wrap;html=1;" vertex="1" parent="1">
          <mxGeometry x="578.25" y="580" width="230" height="40" as="geometry" />
        </mxCell>
        <mxCell id="Zg44AK9i3nNa13F0HYsf-24" style="edgeStyle=orthogonalEdgeStyle;rounded=0;orthogonalLoop=1;jettySize=auto;html=1;" edge="1" parent="1" source="Zg44AK9i3nNa13F0HYsf-19" target="Zg44AK9i3nNa13F0HYsf-20">
          <mxGeometry relative="1" as="geometry" />
        </mxCell>
        <mxCell id="Zg44AK9i3nNa13F0HYsf-19" value="2. 可视化表单约束props参数" style="rounded=1;whiteSpace=wrap;html=1;" vertex="1" parent="1">
          <mxGeometry x="580.75" y="640" width="225" height="30" as="geometry" />
        </mxCell>
        <mxCell id="Zg44AK9i3nNa13F0HYsf-30" style="edgeStyle=orthogonalEdgeStyle;rounded=0;orthogonalLoop=1;jettySize=auto;html=1;" edge="1" parent="1" source="Zg44AK9i3nNa13F0HYsf-20" target="Zg44AK9i3nNa13F0HYsf-27">
          <mxGeometry relative="1" as="geometry" />
        </mxCell>
        <mxCell id="Zg44AK9i3nNa13F0HYsf-57" value="上传到后端" style="edgeLabel;html=1;align=center;verticalAlign=middle;resizable=0;points=[];" vertex="1" connectable="0" parent="Zg44AK9i3nNa13F0HYsf-30">
          <mxGeometry x="-0.323" y="2" relative="1" as="geometry">
            <mxPoint as="offset" />
          </mxGeometry>
        </mxCell>
        <mxCell id="Zg44AK9i3nNa13F0HYsf-20" value="3. 拼接条件参数query到url" style="rounded=1;whiteSpace=wrap;html=1;" vertex="1" parent="1">
          <mxGeometry x="579.5" y="700" width="227.5" height="30" as="geometry" />
        </mxCell>
        <mxCell id="Zg44AK9i3nNa13F0HYsf-60" style="edgeStyle=orthogonalEdgeStyle;rounded=0;orthogonalLoop=1;jettySize=auto;html=1;entryX=1;entryY=0.5;entryDx=0;entryDy=0;" edge="1" parent="1" source="Zg44AK9i3nNa13F0HYsf-27" target="Zg44AK9i3nNa13F0HYsf-56">
          <mxGeometry relative="1" as="geometry" />
        </mxCell>
        <mxCell id="Zg44AK9i3nNa13F0HYsf-27" value="4. 后端存储url，转换为id" style="rounded=0;whiteSpace=wrap;html=1;" vertex="1" parent="1">
          <mxGeometry x="237" y="480" width="120" height="60" as="geometry" />
        </mxCell>
        <mxCell id="Zg44AK9i3nNa13F0HYsf-56" value="&lt;table border=&quot;1&quot; width=&quot;100%&quot; cellpadding=&quot;4&quot; style=&quot;width: 100% ; height: 100% ; border-collapse: collapse&quot;&gt;&lt;tbody&gt;&lt;tr&gt;&lt;th align=&quot;center&quot;&gt;&lt;b&gt;数据库设计&lt;/b&gt;&lt;/th&gt;&lt;/tr&gt;&lt;tr&gt;&lt;td align=&quot;center&quot;&gt;入参&lt;/td&gt;&lt;/tr&gt;&lt;tr&gt;&lt;td align=&quot;center&quot;&gt;出参&lt;/td&gt;&lt;/tr&gt;&lt;/tbody&gt;&lt;/table&gt;" style="text;html=1;strokeColor=none;fillColor=none;overflow=fill;" vertex="1" parent="1">
          <mxGeometry x="10" y="440" width="160" height="140" as="geometry" />
        </mxCell>
        <mxCell id="Zg44AK9i3nNa13F0HYsf-64" style="edgeStyle=orthogonalEdgeStyle;rounded=0;orthogonalLoop=1;jettySize=auto;html=1;" edge="1" parent="1" source="Zg44AK9i3nNa13F0HYsf-61" target="Zg44AK9i3nNa13F0HYsf-62">
          <mxGeometry relative="1" as="geometry">
            <Array as="points">
              <mxPoint x="287" y="130" />
              <mxPoint x="287" y="130" />
            </Array>
          </mxGeometry>
        </mxCell>
        <mxCell id="Zg44AK9i3nNa13F0HYsf-82" style="edgeStyle=orthogonalEdgeStyle;rounded=0;orthogonalLoop=1;jettySize=auto;html=1;entryX=0;entryY=0.5;entryDx=0;entryDy=0;" edge="1" parent="1" source="Zg44AK9i3nNa13F0HYsf-61" target="Zg44AK9i3nNa13F0HYsf-69">
          <mxGeometry relative="1" as="geometry">
            <Array as="points">
              <mxPoint x="287" y="35" />
            </Array>
          </mxGeometry>
        </mxCell>
        <mxCell id="Zg44AK9i3nNa13F0HYsf-61" value="&lt;span&gt;1. typing文件位置：每个微模块的module_federations导出文件出口定义typing&lt;/span&gt;" style="rounded=1;whiteSpace=wrap;html=1;" vertex="1" parent="1">
          <mxGeometry x="132.5" y="80" width="310" height="30" as="geometry" />
        </mxCell>
        <mxCell id="Zg44AK9i3nNa13F0HYsf-62" value="2. 主props：声明props的约定symbols名称（声明式）" style="rounded=1;whiteSpace=wrap;html=1;" vertex="1" parent="1">
          <mxGeometry x="132.5" y="140" width="310" height="30" as="geometry" />
        </mxCell>
        <mxCell id="Zg44AK9i3nNa13F0HYsf-67" style="edgeStyle=orthogonalEdgeStyle;rounded=0;orthogonalLoop=1;jettySize=auto;html=1;" edge="1" parent="1" source="Zg44AK9i3nNa13F0HYsf-66" target="Zg44AK9i3nNa13F0HYsf-62">
          <mxGeometry relative="1" as="geometry" />
        </mxCell>
        <mxCell id="Zg44AK9i3nNa13F0HYsf-66" value="可能方案：不约定props的symbols名称（解析式）" style="rounded=1;whiteSpace=wrap;html=1;dashed=1;" vertex="1" parent="1">
          <mxGeometry x="10" y="110" width="90" height="90" as="geometry" />
        </mxCell>
        <mxCell id="Zg44AK9i3nNa13F0HYsf-77" style="edgeStyle=orthogonalEdgeStyle;rounded=0;orthogonalLoop=1;jettySize=auto;html=1;" edge="1" parent="1" source="Zg44AK9i3nNa13F0HYsf-69" target="Zg44AK9i3nNa13F0HYsf-70">
          <mxGeometry relative="1" as="geometry" />
        </mxCell>
        <mxCell id="Zg44AK9i3nNa13F0HYsf-69" value="1. 由开发规范确定typing文件位置和主props信息" style="rounded=1;whiteSpace=wrap;html=1;" vertex="1" parent="1">
          <mxGeometry x="490" y="20" width="410" height="30" as="geometry" />
        </mxCell>
        <mxCell id="Zg44AK9i3nNa13F0HYsf-78" style="edgeStyle=orthogonalEdgeStyle;rounded=0;orthogonalLoop=1;jettySize=auto;html=1;" edge="1" parent="1" source="Zg44AK9i3nNa13F0HYsf-70" target="Zg44AK9i3nNa13F0HYsf-71">
          <mxGeometry relative="1" as="geometry" />
        </mxCell>
        <mxCell id="Zg44AK9i3nNa13F0HYsf-70" value="2. 对modules_federations每个微模块接入typerscript-json-schema，获取单独json-schema" style="rounded=1;whiteSpace=wrap;html=1;" vertex="1" parent="1">
          <mxGeometry x="490" y="80" width="410" height="30" as="geometry" />
        </mxCell>
        <mxCell id="Zg44AK9i3nNa13F0HYsf-71" value="3. 将独立微模块的json-schema按规范合并成一个sjon" style="rounded=1;whiteSpace=wrap;html=1;" vertex="1" parent="1">
          <mxGeometry x="490" y="140" width="410" height="30" as="geometry" />
        </mxCell>
        <mxCell id="Zg44AK9i3nNa13F0HYsf-76" style="edgeStyle=orthogonalEdgeStyle;rounded=0;orthogonalLoop=1;jettySize=auto;html=1;entryX=1;entryY=0.5;entryDx=0;entryDy=0;" edge="1" parent="1" source="Zg44AK9i3nNa13F0HYsf-75" target="Zg44AK9i3nNa13F0HYsf-20">
          <mxGeometry relative="1" as="geometry" />
        </mxCell>
        <mxCell id="Zg44AK9i3nNa13F0HYsf-75" value="可能方案：直接输出url提供测试" style="rounded=1;whiteSpace=wrap;html=1;dashed=1;" vertex="1" parent="1">
          <mxGeometry x="850" y="670" width="90" height="90" as="geometry" />
        </mxCell>
      </root>
    </mxGraphModel>
  </diagram>
</mxfile>
